HIERARCHY
ROOT Hips
{
 OFFSET 0.000000 0.000000 0.000000
 CHANNELS 6 Xposition Yposition Zposition Yrotation Xrotation Zrotation
 JOINT Chest
 {
  OFFSET 0.000000 10.354800 0.006500
  CHANNELS 3 Yrotation Xrotation Zrotation
  JOINT Chest2
  {
   OFFSET 0.000000 10.435800 -0.013200
   CHANNELS 3 Yrotation Xrotation Zrotation
   JOINT Chest3
   {
    OFFSET 0.000000 10.393700 0.000000
    CHANNELS 3 Yrotation Xrotation Zrotation
    JOINT Chest4
    {
     OFFSET 0.000000 10.383100 0.000000
     CHANNELS 3 Yrotation Xrotation Zrotation
     JOINT Neck
     {
      OFFSET 0.000000 15.694000 0.000000
      CHANNELS 3 Yrotation Xrotation Zrotation
      JOINT Head
      {
       OFFSET 0.000000 9.711000 -0.028000
       CHANNELS 3 Yrotation Xrotation Zrotation
       End Site
       {
        OFFSET 0.000000 18.578700 -0.014800
       }
      }
     }
     JOINT RightCollar
     {
      OFFSET -3.157200 10.367500 0.000000
      CHANNELS 3 Yrotation Xrotation Zrotation
      JOINT RightShoulder
      {
       OFFSET -14.482500 0.000000 0.000000
       CHANNELS 3 Yrotation Xrotation Zrotation
       JOINT RightElbow
       {
        OFFSET 0.000000 -31.707800 0.000000
        CHANNELS 3 Yrotation Xrotation Zrotation
        JOINT RightWrist
        {
         OFFSET 0.000000 -25.659300 0.000000
         CHANNELS 3 Yrotation Xrotation Zrotation
         End Site
         {
          OFFSET 0.000000 -18.994300 0.000000
         }
        }
       }
      }
     }
     JOINT LeftCollar
     {
      OFFSET 3.157200 10.367500 0.000000
      CHANNELS 3 Yrotation Xrotation Zrotation
      JOINT LeftShoulder
      {
       OFFSET 14.482500 0.000000 0.000000
       CHANNELS 3 Yrotation Xrotation Zrotation
       JOINT LeftElbow
       {
        OFFSET 0.000000 -31.707800 0.000000
        CHANNELS 3 Yrotation Xrotation Zrotation
        JOINT LeftWrist
        {
         OFFSET 0.000000 -25.659300 0.000000
         CHANNELS 3 Yrotation Xrotation Zrotation
         End Site
         {
          OFFSET 0.000000 -18.994300 0.000000
         }
        }
       }
      }
     }
    }
   }
  }
 }
 JOINT RightHip
 {
  OFFSET -8.365600 -0.032100 -0.003200
  CHANNELS 3 Yrotation Xrotation Zrotation
  JOINT RightKnee
  {
   OFFSET 0.000000 -43.980000 0.003100
   CHANNELS 3 Yrotation Xrotation Zrotation
   JOINT RightAnkle
   {
    OFFSET 0.000000 -42.882800 0.005200
    CHANNELS 3 Yrotation Xrotation Zrotation
    JOINT RightToe
    {
     OFFSET 0.000000 -4.915500 10.826300
     CHANNELS 3 Yrotation Xrotation Zrotation
     End Site
     {
      OFFSET 0.000000 -1.517500 6.175900
     }
    }
   }
  }
 }
 JOINT LeftHip
 {
  OFFSET 8.365600 -0.032100 -0.003200
  CHANNELS 3 Yrotation Xrotation Zrotation
  JOINT LeftKnee
  {
   OFFSET 0.000000 -43.980000 0.003100
   CHANNELS 3 Yrotation Xrotation Zrotation
   JOINT LeftAnkle
   {
    OFFSET 0.000000 -42.882800 0.005200
    CHANNELS 3 Yrotation Xrotation Zrotation
    JOINT LeftToe
    {
     OFFSET 0.000000 -4.915500 10.826300
     CHANNELS 3 Yrotation Xrotation Zrotation
     End Site
     {
      OFFSET 0.000000 -1.517500 6.175900
     }
    }
   }
  }
 }
}
MOTION
Frames: 9
Frame Time: 0.008333
0.000000 91.618600 0.000000 0.000000 -5.767877 0.000000 0.000000 11.653817 0.000000 0.000000 -5.885947 0.000000 0.000000 -0.000000 0.000000 0.000000 -0.000000 0.000000 0.000000 12.528835 0.000000 0.000000 0.711642 0.000000 0.000000 -0.000000 0.000000 0.000000 0.000000 -90.000000 0.000000 -2.309062 0.000000 0.000000 2.309062 0.000000 0.000000 -0.000000 0.000000 0.000000 -0.000000 90.000000 0.000000 -2.309062 0.000000 0.000000 2.309062 0.000000 0.000000 8.520406 0.000000 0.000000 1.905762 0.000000 -0.000000 -4.658285 0.000000 0.000000 -0.000000 0.000000 0.000000 8.520406 0.000000 0.000000 1.905762 0.000000 -0.000000 -4.658285 0.000000 0.000000 -0.000000 0.000000
-1.720442 126.522074 38.780063 174.515176 -20.293898 -2.391701 -0.655230 12.872338 3.576846 -0.071566 1.059190 0.293593 -0.135782 1.773849 0.501321 -0.628423 11.642818 3.255524 -2.597633 17.260992 -1.878213 -2.326877 -7.557596 -1.378556 3.399502 6.990746 -4.046950 -2.814660 -14.961110 -12.531218 -179.798140 -59.415188 -166.889740 -7.933644 3.158937 -2.500271 -3.890732 8.406000 -1.817809 9.046118 -15.846885 3.522659 172.668226 -60.051671 168.035471 4.926561 3.843244 -12.594555 10.114963 -60.878952 -6.718182 -101.349563 77.140071 -95.049706 4.407484 2.502822 -16.416041 -0.013842 0.001172 -0.006285 -18.451322 -62.419568 1.206115 110.295562 85.068216 102.661507 -5.604977 -22.946004 0.115426 0.000874 0.001748 0.000397
-1.719885 126.520995 38.779628 174.517369 -20.275600 -2.392391 -0.644769 12.868752 3.577428 -0.077525 1.056977 0.295547 -0.136810 1.766962 0.500780 -0.611477 11.650107 3.249912 -2.631957 17.248406 -1.868089 -2.352010 -7.563951 -1.370057 3.376988 7.035134 -4.063735 -2.845489 -15.013692 -12.513411 -178.983051 -59.614731 -167.433893 -8.095971 3.098122 -2.166454 -3.899870 8.487794 -1.786530 9.172138 -15.881684 3.366597 171.992349 -60.192555 168.582866 5.119061 3.705568 -12.942752 10.116688 -60.897225 -6.724650 -101.353364 77.140498 -95.055414 4.435380 2.499758 -16.422129 -0.010840 0.000191 -0.004922 -18.471421 -62.436514 1.221951 110.246166 85.068855 102.613632 -5.598038 -22.946851 0.110038 0.000046 0.001356 0.000021
-1.717840 126.520029 38.778645 174.519306 -20.259132 -2.400185 -0.639170 12.865893 3.585812 -0.081534 1.049394 0.296462 -0.135047 1.766728 0.499713 -0.609718 11.648536 3.248821 -2.658015 17.244961 -1.867925 -2.372444 -7.566970 -1.366723 3.369248 7.064734 -4.076624 -2.932666 -15.091399 -12.548531 -177.906736 -59.890914 -168.159980 -8.306266 3.048031 -1.794829 -3.908513 8.589314 -1.764954 9.304360 -15.938638 3.203810 171.349458 -60.365645 169.134437 5.343036 3.545776 -13.390757 10.103007 -60.916220 -6.712441 -101.366834 77.144602 -95.076745 4.547869 2.492880 -16.444489 0.000946 -0.005852 0.000430 -18.516312 -62.449086 1.258790 110.054237 85.049361 102.423757 -5.597932 -22.943384 0.097488 0.001515 0.001500 0.000688
-1.717964 126.519363 38.775980 174.523298 -20.250376 -2.395358 -0.643681 12.870146 3.582478 -0.081853 1.042391 0.294901 -0.135790 1.770761 0.500118 -0.614589 11.643072 3.246169 -2.664706 17.241019 -1.869470 -2.400584 -7.566105 -1.366394 3.347344 7.163645 -4.116627 -2.963185 -15.256164 -12.547791 -176.732746 -60.253997 -168.965792 -8.543676 3.014984 -1.416035 -3.908766 8.639608 -1.756818 9.429096 -15.961281 3.056217 170.683025 -60.582997 169.730516 5.610593 3.383564 -13.954636 10.106611 -60.924835 -6.720352 -101.381137 77.144467 -95.096986 4.529068 2.487475 -16.436113 -0.001056 -0.004080 -0.000479 -18.532332 -62.458008 1.268257 109.949687 85.037976 102.318761 -5.634956 -22.935801 0.100808 0.000440 0.000849 0.000200
-1.717385 126.517034 38.777971 174.528014 -20.216006 -2.396983 -0.649589 12.846569 3.584602 -0.082270 1.040985 0.294492 -0.136539 1.768637 0.499380 -0.638224 11.637327 3.238487 -2.651891 17.241283 -1.869706 -2.422075 -7.560878 -1.372866 3.341489 7.265418 -4.147609 -2.976060 -15.446266 -12.576803 -175.260213 -60.721797 -170.010520 -8.775171 3.002406 -1.071549 -3.892503 8.694628 -1.749420 9.565578 -15.998500 2.903580 169.892661 -60.855412 170.443315 5.925947 3.230253 -14.604771 10.101898 -60.959402 -6.722636 -101.378699 77.156378 -95.100721 4.549308 2.484290 -16.442511 0.005212 -0.003618 0.002366 -18.570214 -62.491130 1.305441 109.898252 85.036863 102.265891 -5.644005 -22.928254 0.101166 0.000470 0.002124 0.000213
-1.715195 126.515947 38.777057 174.524385 -20.203307 -2.403257 -0.653411 12.847245 3.589953 -0.089448 1.042441 0.293400 -0.131585 1.763400 0.499178 -0.650572 11.629219 3.234212 -2.656608 17.243514 -1.875990 -2.416212 -7.555983 -1.382309 3.347546 7.319395 -4.160221 -2.972424 -15.610066 -12.651930 -173.487931 -61.286758 -171.335908 -9.019150 3.013594 -0.768060 -3.936159 8.837638 -1.760701 9.774414 -16.139266 2.739102 168.929204 -61.181544 171.307364 6.291566 3.088765 -15.263927 10.096850 -60.977486 -6.707420 -101.373254 77.160389 -95.103668 4.597167 2.490258 -16.449582 0.014037 -0.009999 0.006372 -18.599431 -62.501525 1.341295 109.875631 85.033572 102.241377 -5.646210 -22.923896 0.099375 0.000176 0.002185 0.000080
-1.714898 126.515001 38.775859 174.524400 -20.196055 -2.400584 -0.683243 12.853416 3.578587 -0.066849 1.033632 0.294991 -0.139589 1.764837 0.497796 -0.642330 11.625090 3.234064 -2.697412 17.258442 -1.895957 -2.379035 -7.568524 -1.378755 3.332921 7.372344 -4.166958 -2.932126 -15.791357 -12.758681 -171.524160 -61.913157 -172.901992 -9.342084 3.043760 -0.494293 -3.986725 8.911663 -1.775394 9.983965 -16.232210 2.592204 167.818153 -61.552716 172.301607 6.717060 2.952255 -15.831322 10.108850 -60.986042 -6.713550 -101.360049 77.161458 -95.095076 4.523557 2.493402 -16.424544 0.010428 -0.009321 0.004734 -18.614426 -62.509458 1.357648 109.842195 85.029450 102.201557 -5.647613 -22.917972 0.098666 0.002056 0.001516 0.000934
-1.715707 126.514092 38.775197 174.524196 -20.191765 -2.392462 -0.703664 12.852462 3.565893 -0.085764 1.038122 0.292908 -0.120635 1.763257 0.497392 -0.653344 11.623870 3.230555 -2.674645 17.259676 -1.899519 -2.389928 -7.546519 -1.395850 3.336499 7.416123 -4.172581 -2.836937 -15.987736 -12.886615 -169.479939 -62.577327 -174.635467 -9.780121 3.062118 -0.288871 -4.004033 8.946880 -1.791705 10.189328 -16.318663 2.459051 166.625855 -61.974783 173.375706 7.220031 2.792295 -16.192664 10.126289 -60.989835 -6.728124 -101.352144 77.158041 -95.084908 4.372526 2.496770 -16.391530 0.001658 -0.003271 0.000753 -18.620260 -62.516311 1.363972 109.832183 85.038848 102.185907 -5.667787 -22.908171 0.100141 0.001332 0.001272 0.000605
